<?xml version="1.0" encoding="UTF-8" standalone="no"?>
<!-- Created with Inkscape (http://www.inkscape.org/) -->

<svg
   xmlns:dc="http://purl.org/dc/elements/1.1/"
   xmlns:cc="http://creativecommons.org/ns#"
   xmlns:rdf="http://www.w3.org/1999/02/22-rdf-syntax-ns#"
   xmlns:svg="http://www.w3.org/2000/svg"
   xmlns="http://www.w3.org/2000/svg"
   xmlns:xlink="http://www.w3.org/1999/xlink"
   xmlns:sodipodi="http://sodipodi.sourceforge.net/DTD/sodipodi-0.dtd"
   xmlns:inkscape="http://www.inkscape.org/namespaces/inkscape"
   width="160"
   height="160"
   viewBox="0 0 160 160"
   id="svg2"
   version="1.1"
   inkscape:version="0.91 r13725"
   sodipodi:docname="slowMo.svg">
  <defs
     id="defs4">
    <linearGradient
       inkscape:collect="always"
       id="linearGradient4218">
      <stop
         style="stop-color:#33fbff;stop-opacity:1;"
         offset="0"
         id="stop4220" />
      <stop
         style="stop-color:#33fbff;stop-opacity:0;"
         offset="1"
         id="stop4222" />
    </linearGradient>
    <linearGradient
       inkscape:collect="always"
       xlink:href="#linearGradient4218"
       id="linearGradient4224"
       x1="76.999182"
       y1="956.37525"
       x2="122.84391"
       y2="956.37525"
       gradientUnits="userSpaceOnUse"
       gradientTransform="matrix(0.68507174,0.7284756,-0.7284756,0.68507174,733.04686,242.95879)" />
  </defs>
  <sodipodi:namedview
     id="base"
     pagecolor="#ffffff"
     bordercolor="#666666"
     borderopacity="1.0"
     inkscape:pageopacity="0.0"
     inkscape:pageshadow="2"
     inkscape:zoom="3.69375"
     inkscape:cx="80"
     inkscape:cy="80"
     inkscape:document-units="px"
     inkscape:current-layer="layer1"
     showgrid="false"
     width="568mm"
     units="px"
     inkscape:window-width="1440"
     inkscape:window-height="793"
     inkscape:window-x="0"
     inkscape:window-y="0"
     inkscape:window-maximized="1" />
  <metadata
     id="metadata7">
    <rdf:RDF>
      <cc:Work
         rdf:about="">
        <dc:format>image/svg+xml</dc:format>
        <dc:type
           rdf:resource="http://purl.org/dc/dcmitype/StillImage" />
        <dc:title></dc:title>
      </cc:Work>
    </rdf:RDF>
  </metadata>
  <g
     inkscape:label="Layer 1"
     inkscape:groupmode="layer"
     id="layer1"
     transform="translate(0,-892.36221)">
    <path
       style="color:#000000;clip-rule:nonzero;display:inline;overflow:visible;visibility:visible;opacity:1;isolation:auto;mix-blend-mode:normal;color-interpolation:sRGB;color-interpolation-filters:linearRGB;solid-color:#000000;solid-opacity:1;fill:#33fbff;fill-opacity:1;fill-rule:evenodd;stroke:#33fbff;stroke-width:1.14599609px;stroke-linecap:butt;stroke-linejoin:miter;stroke-miterlimit:4;stroke-dasharray:none;stroke-dashoffset:0;stroke-opacity:1;color-rendering:auto;image-rendering:auto;shape-rendering:auto;text-rendering:auto;enable-background:accumulate"
       d="M 80.8125 2.4882812 A 78.71891 78.71891 0 0 0 2.09375 81.208984 A 78.71891 78.71891 0 0 0 80.8125 159.92773 A 78.71891 78.71891 0 0 0 159.53125 81.208984 A 78.71891 78.71891 0 0 0 80.8125 2.4882812 z M 80.8125 14.591797 A 66.615898 66.615898 0 0 1 147.42773 81.208984 A 66.615898 66.615898 0 0 1 80.8125 147.82422 A 66.615898 66.615898 0 0 1 14.197266 81.208984 A 66.615898 66.615898 0 0 1 80.8125 14.591797 z "
       id="path4136"
       transform="translate(0,892.36221)"
       inkscape:export-xdpi="90"
       inkscape:export-ydpi="90" />
    <path
       style="fill:#33fbff;fill-opacity:1;fill-rule:evenodd;stroke:#33fbff;stroke-width:1px;stroke-linecap:butt;stroke-linejoin:miter;stroke-opacity:1"
       d="m 77.172358,967.83144 c -1.376069,2.70005 0.732261,6.43933 2.808655,8.64665 8.017815,8.52348 53.134927,33.06751 53.134927,33.06751 0,0 -35.028529,-40.23474 -46.816595,-44.67884 -2.993152,-1.12844 -7.674516,0.11463 -9.126987,2.96468 z"
       id="path4141"
       inkscape:connector-curvature="0"
       sodipodi:nodetypes="ascsa"
       inkscape:transform-center-x="-21.769646"
       inkscape:transform-center-y="16.620298"
       inkscape:export-xdpi="90"
       inkscape:export-ydpi="90" />
    <path
       style="fill:#33fbff;fill-opacity:0.29281772;fill-rule:evenodd;stroke:#33fbff;stroke-width:1px;stroke-linecap:butt;stroke-linejoin:miter;stroke-opacity:0.29411765"
       d="m 76.842208,973.67504 c -1.876398,-2.65882 -0.720202,-7.68924 1.936354,-9.56887 13.729347,-9.71409 57.210168,-23.68826 57.210168,-23.68826 0,0 -33.1446,27.54473 -48.150921,34.82901 -3.330786,1.6168 -8.860711,1.45309 -10.995601,-1.57188 z"
       id="path4214"
       inkscape:connector-curvature="0"
       sodipodi:nodetypes="ascsa"
       inkscape:transform-center-x="-21.884871"
       inkscape:transform-center-y="-10.768346"
       inkscape:export-xdpi="90"
       inkscape:export-ydpi="90" />
    <path
       style="fill:#33fbff;fill-opacity:0.58823529;fill-rule:evenodd;stroke:url(#linearGradient4224);stroke-width:1px;stroke-linecap:butt;stroke-linejoin:miter;stroke-opacity:0.58823529"
       d="m 141.71253,972.68944 c 0,0 -42.099818,-11.00638 -59.012841,-9.76054 -3.329091,0.24523 -7.013371,3.95382 -6.867394,7.28875 0.142694,3.25984 4.074426,6.08639 7.309669,6.51086 17.021376,2.23324 58.570566,-4.03907 58.570566,-4.03907 z"
       id="path4216"
       inkscape:connector-curvature="0"
       sodipodi:nodetypes="csasc"
       inkscape:transform-center-x="-26.385549"
       inkscape:transform-center-y="0.68357154"
       inkscape:export-xdpi="90"
       inkscape:export-ydpi="90" />
  </g>
</svg>
